<svg width="24" height="24" viewBox="0 0 24 24" fill="none" xmlns="http://www.w3.org/2000/svg">
<mask id="mask0_75880_8826" style="mask-type:alpha" maskUnits="userSpaceOnUse" x="0" y="0" width="25" height="24">
<rect x="0.000976562" width="24" height="24" fill="#D9D9D9"/>
</mask>
<g mask="url(#mask0_75880_8826)">
<path d="M9.55118 15.15L18.0262 6.675C18.2262 6.475 18.4637 6.375 18.7387 6.375C19.0137 6.375 19.2512 6.475 19.4512 6.675C19.6512 6.875 19.7512 7.1125 19.7512 7.3875C19.7512 7.6625 19.6512 7.9 19.4512 8.1L10.2512 17.3C10.0512 17.5 9.81785 17.6 9.55118 17.6C9.28452 17.6 9.05118 17.5 8.85118 17.3L4.55118 13C4.35118 12.8 4.25535 12.5625 4.26368 12.2875C4.27202 12.0125 4.37618 11.775 4.57618 11.575C4.77618 11.375 5.01368 11.275 5.28868 11.275C5.56368 11.275 5.80118 11.375 6.00118 11.575L9.55118 15.15Z" fill="#2A3647"/>
</g>
</svg>
