<svg width="32" height="33" viewBox="0 0 32 33" fill="none" xmlns="http://www.w3.org/2000/svg">
<rect y="0.96582" width="32" height="32" rx="16" fill="#EEEEEE"/>
<path d="M8.70752 15.6325H26.1981C26.9345 15.6325 27.5314 16.2295 27.5314 16.9659C27.5314 17.7023 26.9345 18.2992 26.1981 18.2992H8.70752L14.9169 24.5085C15.4375 25.0292 15.4375 25.8733 14.9168 26.3939C14.3962 26.9145 13.5521 26.9145 13.0315 26.3939L5.01773 18.3801C4.23668 17.599 4.23668 16.3327 5.01773 15.5517L13.0315 7.53788C13.5521 7.01726 14.3962 7.01726 14.9168 7.53788C15.4375 8.0585 15.4375 8.90259 14.9168 9.42322L8.70752 15.6325Z" fill="#29ABE2"/>
</svg>
