<svg width="456" height="101" viewBox="0 0 456 101" fill="none" xmlns="http://www.w3.org/2000/svg">
<rect width="456" height="101" fill="white"/>
<rect x="52.5" y="23" width="351" height="55" rx="9.5" fill="#2A3647"/>
<rect x="52.5" y="23" width="351" height="55" rx="9.5" stroke="#2A3647"/>
<path d="M120.46 58H117L122.272 42.7273H126.433L131.698 58H128.238L124.412 46.2173H124.293L120.46 58ZM120.244 51.9968H128.417V54.5174H120.244V51.9968ZM137.164 58.1864C136.294 58.1864 135.506 57.9627 134.8 57.5153C134.099 57.0629 133.543 56.3991 133.13 55.5241C132.722 54.6442 132.518 53.5653 132.518 52.2876C132.518 50.9751 132.73 49.8839 133.152 49.0138C133.575 48.1388 134.137 47.4851 134.838 47.0526C135.544 46.6151 136.317 46.3963 137.157 46.3963C137.798 46.3963 138.333 46.5057 138.76 46.7244C139.193 46.9382 139.541 47.2067 139.804 47.5298C140.073 47.848 140.277 48.1612 140.416 48.4695H140.513V42.7273H143.682V58H140.55V56.1655H140.416C140.267 56.4837 140.055 56.7994 139.782 57.1126C139.513 57.4208 139.163 57.6768 138.73 57.8807C138.303 58.0845 137.781 58.1864 137.164 58.1864ZM138.171 55.6584C138.683 55.6584 139.116 55.5192 139.469 55.2408C139.827 54.9574 140.1 54.5621 140.289 54.055C140.483 53.5479 140.58 52.9538 140.58 52.2727C140.58 51.5916 140.485 51 140.297 50.4979C140.108 49.9957 139.834 49.608 139.476 49.3345C139.118 49.0611 138.683 48.9244 138.171 48.9244C137.649 48.9244 137.209 49.0661 136.851 49.3494C136.493 49.6328 136.222 50.0256 136.038 50.5277C135.854 51.0298 135.762 51.6115 135.762 52.2727C135.762 52.9389 135.854 53.5281 136.038 54.0401C136.227 54.5472 136.498 54.945 136.851 55.2333C137.209 55.5167 137.649 55.6584 138.171 55.6584ZM150.515 58.1864C149.645 58.1864 148.857 57.9627 148.151 57.5153C147.45 57.0629 146.893 56.3991 146.481 55.5241C146.073 54.6442 145.869 53.5653 145.869 52.2876C145.869 50.9751 146.08 49.8839 146.503 49.0138C146.926 48.1388 147.487 47.4851 148.188 47.0526C148.894 46.6151 149.667 46.3963 150.508 46.3963C151.149 46.3963 151.683 46.5057 152.111 46.7244C152.543 46.9382 152.891 47.2067 153.155 47.5298C153.423 47.848 153.627 48.1612 153.766 48.4695H153.863V42.7273H157.033V58H153.901V56.1655H153.766C153.617 56.4837 153.406 56.7994 153.133 57.1126C152.864 57.4208 152.514 57.6768 152.081 57.8807C151.653 58.0845 151.131 58.1864 150.515 58.1864ZM151.522 55.6584C152.034 55.6584 152.466 55.5192 152.819 55.2408C153.177 54.9574 153.451 54.5621 153.64 54.055C153.834 53.5479 153.93 52.9538 153.93 52.2727C153.93 51.5916 153.836 51 153.647 50.4979C153.458 49.9957 153.185 49.608 152.827 49.3345C152.469 49.0611 152.034 48.9244 151.522 48.9244C151 48.9244 150.56 49.0661 150.202 49.3494C149.844 49.6328 149.573 50.0256 149.389 50.5277C149.205 51.0298 149.113 51.6115 149.113 52.2727C149.113 52.9389 149.205 53.5281 149.389 54.0401C149.578 54.5472 149.849 54.945 150.202 55.2333C150.56 55.5167 151 55.6584 151.522 55.6584ZM167.682 51.3778V58H164.505V46.5455H167.533V48.5664H167.667C167.921 47.9002 168.346 47.3732 168.942 46.9854C169.539 46.5927 170.262 46.3963 171.112 46.3963C171.908 46.3963 172.601 46.5703 173.193 46.9183C173.785 47.2663 174.244 47.7635 174.573 48.4098C174.901 49.0511 175.065 49.8168 175.065 50.7067V58H171.888V51.2734C171.893 50.5724 171.714 50.0256 171.351 49.6328C170.988 49.2351 170.488 49.0362 169.852 49.0362C169.424 49.0362 169.047 49.1282 168.718 49.3121C168.395 49.4961 168.142 49.7646 167.958 50.1175C167.779 50.4656 167.687 50.8857 167.682 51.3778ZM182.789 58.2237C181.61 58.2237 180.596 57.9851 179.746 57.5078C178.901 57.0256 178.25 56.3445 177.792 55.4645C177.335 54.5795 177.106 53.533 177.106 52.3249C177.106 51.1467 177.335 50.1126 177.792 49.2227C178.25 48.3327 178.893 47.6392 179.724 47.142C180.559 46.6449 181.538 46.3963 182.662 46.3963C183.418 46.3963 184.121 46.5181 184.772 46.7617C185.429 47.0004 186 47.3608 186.488 47.843C186.98 48.3253 187.363 48.9318 187.636 49.6626C187.909 50.3885 188.046 51.2386 188.046 52.2131V53.0856H178.374V51.1168H185.056C185.056 50.6594 184.956 50.2543 184.757 49.9013C184.559 49.5483 184.283 49.2724 183.93 49.0735C183.582 48.8697 183.176 48.7678 182.714 48.7678C182.232 48.7678 181.804 48.8796 181.431 49.1033C181.064 49.3221 180.775 49.6179 180.566 49.9908C180.358 50.3587 180.251 50.7688 180.246 51.2212V53.093C180.246 53.6598 180.35 54.1495 180.559 54.5621C180.773 54.9748 181.074 55.293 181.461 55.5167C181.849 55.7404 182.309 55.8523 182.841 55.8523C183.194 55.8523 183.517 55.8026 183.81 55.7031C184.104 55.6037 184.355 55.4545 184.564 55.2557C184.772 55.0568 184.931 54.8132 185.041 54.5249L187.979 54.7188C187.83 55.4247 187.524 56.0412 187.062 56.5682C186.604 57.0902 186.013 57.4979 185.287 57.7912C184.566 58.0795 183.733 58.2237 182.789 58.2237ZM192.297 58L189.18 46.5455H192.394L194.169 54.2415H194.273L196.123 46.5455H199.277L201.156 54.1967H201.253L202.998 46.5455H206.205L203.095 58H199.732L197.763 50.7962H197.621L195.653 58H192.297ZM217.935 58.2237C216.762 58.2237 215.753 57.9751 214.908 57.478C214.067 56.9759 213.421 56.2798 212.969 55.3899C212.521 54.5 212.298 53.4759 212.298 52.3175C212.298 51.1442 212.524 50.1151 212.976 49.2301C213.434 48.3402 214.082 47.6467 214.923 47.1495C215.763 46.6474 216.762 46.3963 217.92 46.3963C218.92 46.3963 219.795 46.5778 220.545 46.9407C221.296 47.3036 221.89 47.8132 222.328 48.4695C222.765 49.1257 223.006 49.8963 223.051 50.7812H220.053C219.969 50.2095 219.745 49.7496 219.382 49.4016C219.024 49.0487 218.554 48.8722 217.973 48.8722C217.48 48.8722 217.05 49.0064 216.683 49.2749C216.32 49.5384 216.036 49.9237 215.832 50.4308C215.629 50.9379 215.527 51.5518 215.527 52.2727C215.527 53.0036 215.626 53.625 215.825 54.1371C216.029 54.6491 216.315 55.0394 216.683 55.3079C217.05 55.5763 217.48 55.7106 217.973 55.7106C218.336 55.7106 218.661 55.636 218.95 55.4869C219.243 55.3377 219.484 55.1214 219.673 54.8381C219.867 54.5497 219.994 54.2042 220.053 53.8015H223.051C223.001 54.6765 222.763 55.4471 222.335 56.1133C221.913 56.7745 221.328 57.2915 220.583 57.6644C219.837 58.0373 218.955 58.2237 217.935 58.2237ZM230.261 58.2237C229.102 58.2237 228.1 57.9776 227.255 57.4854C226.415 56.9883 225.766 56.2972 225.309 55.4123C224.851 54.5224 224.623 53.4908 224.623 52.3175C224.623 51.1342 224.851 50.1001 225.309 49.2152C225.766 48.3253 226.415 47.6342 227.255 47.142C228.1 46.6449 229.102 46.3963 230.261 46.3963C231.419 46.3963 232.418 46.6449 233.258 47.142C234.104 47.6342 234.755 48.3253 235.212 49.2152C235.67 50.1001 235.898 51.1342 235.898 52.3175C235.898 53.4908 235.67 54.5224 235.212 55.4123C234.755 56.2972 234.104 56.9883 233.258 57.4854C232.418 57.9776 231.419 58.2237 230.261 58.2237ZM230.275 55.7628C230.802 55.7628 231.242 55.6136 231.595 55.3153C231.948 55.0121 232.214 54.5994 232.393 54.0774C232.577 53.5554 232.669 52.9613 232.669 52.2951C232.669 51.6289 232.577 51.0348 232.393 50.5128C232.214 49.9908 231.948 49.5781 231.595 49.2749C231.242 48.9716 230.802 48.82 230.275 48.82C229.744 48.82 229.296 48.9716 228.933 49.2749C228.575 49.5781 228.304 49.9908 228.12 50.5128C227.941 51.0348 227.852 51.6289 227.852 52.2951C227.852 52.9613 227.941 53.5554 228.12 54.0774C228.304 54.5994 228.575 55.0121 228.933 55.3153C229.296 55.6136 229.744 55.7628 230.275 55.7628ZM241.141 51.3778V58H237.964V46.5455H240.992V48.5664H241.126C241.38 47.9002 241.805 47.3732 242.401 46.9854C242.998 46.5927 243.721 46.3963 244.571 46.3963C245.367 46.3963 246.06 46.5703 246.652 46.9183C247.244 47.2663 247.703 47.7635 248.032 48.4098C248.36 49.0511 248.524 49.8168 248.524 50.7067V58H245.347V51.2734C245.352 50.5724 245.173 50.0256 244.81 49.6328C244.447 49.2351 243.947 49.0362 243.311 49.0362C242.883 49.0362 242.506 49.1282 242.177 49.3121C241.854 49.4961 241.601 49.7646 241.417 50.1175C241.238 50.4656 241.146 50.8857 241.141 51.3778ZM257.12 46.5455V48.9318H250.222V46.5455H257.12ZM251.788 43.8011H254.965V54.4801C254.965 54.7734 255.01 55.0021 255.099 55.1662C255.189 55.3253 255.313 55.4371 255.472 55.5018C255.636 55.5664 255.825 55.5987 256.039 55.5987C256.188 55.5987 256.337 55.5863 256.486 55.5614C256.635 55.5316 256.75 55.5092 256.829 55.4943L257.329 57.8583C257.17 57.908 256.946 57.9652 256.658 58.0298C256.369 58.0994 256.019 58.1417 255.606 58.1566C254.841 58.1864 254.17 58.0845 253.593 57.8509C253.021 57.6172 252.576 57.2543 252.258 56.7621C251.94 56.2699 251.783 55.6484 251.788 54.8977V43.8011ZM262.456 58.2163C261.725 58.2163 261.074 58.0895 260.502 57.8359C259.93 57.5774 259.478 57.1971 259.145 56.695C258.817 56.1879 258.653 55.5565 258.653 54.8008C258.653 54.1644 258.77 53.63 259.003 53.1974C259.237 52.7649 259.555 52.4169 259.958 52.1534C260.36 51.8899 260.818 51.6911 261.33 51.5568C261.847 51.4226 262.389 51.3281 262.956 51.2734C263.622 51.2038 264.159 51.1392 264.566 51.0795C264.974 51.0149 265.27 50.9205 265.454 50.7962C265.638 50.6719 265.73 50.4879 265.73 50.2443V50.1996C265.73 49.7273 265.581 49.3619 265.282 49.1033C264.989 48.8448 264.571 48.7156 264.029 48.7156C263.458 48.7156 263.003 48.8423 262.665 49.0959C262.327 49.3445 262.103 49.6577 261.994 50.0355L259.055 49.7969C259.205 49.1009 259.498 48.4993 259.935 47.9922C260.373 47.4801 260.937 47.0874 261.628 46.8139C262.324 46.5355 263.13 46.3963 264.044 46.3963C264.681 46.3963 265.29 46.4709 265.871 46.62C266.458 46.7692 266.978 47.0004 267.43 47.3136C267.887 47.6268 268.248 48.0295 268.511 48.5217C268.775 49.0089 268.907 49.593 268.907 50.2741V58H265.894V56.4116H265.804C265.62 56.7695 265.374 57.0852 265.066 57.3587C264.758 57.6271 264.387 57.8384 263.955 57.9925C263.522 58.1417 263.023 58.2163 262.456 58.2163ZM263.366 56.0238C263.833 56.0238 264.246 55.9318 264.604 55.7479C264.962 55.5589 265.243 55.3054 265.446 54.9872C265.65 54.669 265.752 54.3086 265.752 53.9059V52.6903C265.653 52.755 265.516 52.8146 265.342 52.8693C265.173 52.919 264.982 52.9663 264.768 53.011C264.554 53.0508 264.34 53.0881 264.126 53.1229C263.913 53.1527 263.719 53.18 263.545 53.2049C263.172 53.2596 262.846 53.3466 262.568 53.4659C262.289 53.5852 262.073 53.7468 261.919 53.9506C261.765 54.1495 261.688 54.3981 261.688 54.6964C261.688 55.1289 261.844 55.4595 262.158 55.6882C262.476 55.9119 262.879 56.0238 263.366 56.0238ZM276.547 58.2237C275.373 58.2237 274.364 57.9751 273.519 57.478C272.679 56.9759 272.032 56.2798 271.58 55.3899C271.133 54.5 270.909 53.4759 270.909 52.3175C270.909 51.1442 271.135 50.1151 271.588 49.2301C272.045 48.3402 272.694 47.6467 273.534 47.1495C274.374 46.6474 275.373 46.3963 276.532 46.3963C277.531 46.3963 278.406 46.5778 279.157 46.9407C279.907 47.3036 280.502 47.8132 280.939 48.4695C281.377 49.1257 281.618 49.8963 281.662 50.7812H278.665C278.58 50.2095 278.356 49.7496 277.993 49.4016C277.635 49.0487 277.166 48.8722 276.584 48.8722C276.092 48.8722 275.662 49.0064 275.294 49.2749C274.931 49.5384 274.648 49.9237 274.444 50.4308C274.24 50.9379 274.138 51.5518 274.138 52.2727C274.138 53.0036 274.237 53.625 274.436 54.1371C274.64 54.6491 274.926 55.0394 275.294 55.3079C275.662 55.5763 276.092 55.7106 276.584 55.7106C276.947 55.7106 277.273 55.636 277.561 55.4869C277.854 55.3377 278.095 55.1214 278.284 54.8381C278.478 54.5497 278.605 54.2042 278.665 53.8015H281.662C281.613 54.6765 281.374 55.4471 280.947 56.1133C280.524 56.7745 279.94 57.2915 279.194 57.6644C278.448 58.0373 277.566 58.2237 276.547 58.2237ZM289.789 46.5455V48.9318H282.891V46.5455H289.789ZM284.457 43.8011H287.634V54.4801C287.634 54.7734 287.679 55.0021 287.768 55.1662C287.858 55.3253 287.982 55.4371 288.141 55.5018C288.305 55.5664 288.494 55.5987 288.708 55.5987C288.857 55.5987 289.006 55.5863 289.155 55.5614C289.304 55.5316 289.419 55.5092 289.498 55.4943L289.998 57.8583C289.839 57.908 289.615 57.9652 289.327 58.0298C289.038 58.0994 288.688 58.1417 288.275 58.1566C287.51 58.1864 286.839 58.0845 286.262 57.8509C285.69 57.6172 285.245 57.2543 284.927 56.7621C284.609 56.2699 284.452 55.6484 284.457 54.8977V43.8011Z" fill="white"/>
<mask id="mask0_71348_10706" style="mask-type:alpha" maskUnits="userSpaceOnUse" x="307" y="34" width="33" height="33">
<rect x="307.5" y="34.5" width="32" height="32" fill="#D9D9D9"/>
</mask>
<g mask="url(#mask0_71348_10706)">
<path d="M332.829 53.1667C332.513 53.1667 332.25 53.0602 332.039 52.8473C331.828 52.6343 331.722 52.3704 331.722 52.0556V48.9445H328.611C328.296 48.9445 328.032 48.8376 327.819 48.6239C327.606 48.4102 327.5 48.1454 327.5 47.8295C327.5 47.5136 327.606 47.2501 327.819 47.0389C328.032 46.8278 328.296 46.7223 328.611 46.7223H331.722V43.6111C331.722 43.2963 331.829 43.0325 332.043 42.8195C332.256 42.6065 332.521 42.5 332.837 42.5C333.153 42.5 333.417 42.6065 333.628 42.8195C333.839 43.0325 333.944 43.2963 333.944 43.6111V46.7223H337.055C337.37 46.7223 337.634 46.8291 337.847 47.0428C338.06 47.2566 338.167 47.5214 338.167 47.8373C338.167 48.1532 338.06 48.4167 337.847 48.6278C337.634 48.8389 337.37 48.9445 337.055 48.9445H333.944V52.0556C333.944 52.3704 333.837 52.6343 333.624 52.8473C333.41 53.0602 333.145 53.1667 332.829 53.1667ZM319.5 50.4778C318.033 50.4778 316.815 49.9926 315.844 49.0223C314.874 48.0519 314.389 46.8334 314.389 45.3667C314.389 43.9 314.874 42.6815 315.844 41.7112C316.815 40.7408 318.033 40.2556 319.5 40.2556C320.967 40.2556 322.185 40.7408 323.155 41.7112C324.126 42.6815 324.611 43.9 324.611 45.3667C324.611 46.8334 324.126 48.0519 323.155 49.0223C322.185 49.9926 320.967 50.4778 319.5 50.4778ZM309.944 61.1667C309.63 61.1667 309.366 61.0602 309.153 60.8473C308.94 60.6343 308.833 60.3704 308.833 60.0556V57.8334C308.833 57.063 309.031 56.3612 309.428 55.7279C309.824 55.0945 310.367 54.6186 311.055 54.3C312.626 53.5815 314.08 53.0649 315.419 52.75C316.757 52.4352 318.116 52.2779 319.496 52.2779C320.876 52.2779 322.237 52.4352 323.578 52.75C324.918 53.0649 326.367 53.5815 327.922 54.3C328.611 54.6334 329.157 55.113 329.561 55.7389C329.965 56.3649 330.167 57.063 330.167 57.8334V60.0556C330.167 60.3704 330.06 60.6343 329.847 60.8473C329.634 61.0602 329.37 61.1667 329.055 61.1667H309.944ZM311.055 58.9445H327.944V57.8334C327.944 57.5149 327.865 57.2149 327.705 56.9334C327.546 56.6519 327.307 56.4408 326.989 56.3C325.552 55.5963 324.263 55.1204 323.122 54.8723C321.981 54.6241 320.774 54.5 319.5 54.5C318.226 54.5 317.018 54.6278 315.878 54.8834C314.737 55.1389 313.441 55.6112 311.989 56.3C311.7 56.4408 311.472 56.6519 311.305 56.9334C311.139 57.2149 311.055 57.5149 311.055 57.8334V58.9445ZM319.5 48.2556C320.322 48.2556 321.009 47.9797 321.561 47.4278C322.113 46.876 322.389 46.1889 322.389 45.3667C322.389 44.5445 322.113 43.8575 321.561 43.3056C321.009 42.7537 320.322 42.4778 319.5 42.4778C318.678 42.4778 317.991 42.7537 317.439 43.3056C316.887 43.8575 316.611 44.5445 316.611 45.3667C316.611 46.1889 316.887 46.876 317.439 47.4278C317.991 47.9797 318.678 48.2556 319.5 48.2556Z" fill="white"/>
</g>
</svg>
