<svg width="24" height="25" viewBox="0 0 24 25" fill="none" xmlns="http://www.w3.org/2000/svg">
<mask id="mask0_197607_6609" style="mask-type:alpha" maskUnits="userSpaceOnUse" x="0" y="0" width="24" height="25">
<rect y="0.5" width="24" height="24" fill="#D9D9D9"/>
</mask>
<g mask="url(#mask0_197607_6609)">
<path d="M9.55021 15.65L18.0252 7.175C18.2252 6.975 18.4627 6.875 18.7377 6.875C19.0127 6.875 19.2502 6.975 19.4502 7.175C19.6502 7.375 19.7502 7.6125 19.7502 7.8875C19.7502 8.1625 19.6502 8.4 19.4502 8.6L10.2502 17.8C10.0502 18 9.81687 18.1 9.55021 18.1C9.28354 18.1 9.05021 18 8.85021 17.8L4.55021 13.5C4.35021 13.3 4.25437 13.0625 4.26271 12.7875C4.27104 12.5125 4.37521 12.275 4.57521 12.075C4.77521 11.875 5.01271 11.775 5.28771 11.775C5.56271 11.775 5.80021 11.875 6.00021 12.075L9.55021 15.65Z" fill="white"/>
</g>
</svg>
