<svg width="16" height="13" viewBox="0 0 16 13" fill="none" xmlns="http://www.w3.org/2000/svg">
<path d="M5.54972 9.65L14.0247 1.175C14.2247 0.975 14.4622 0.875 14.7372 0.875C15.0122 0.875 15.2497 0.975 15.4497 1.175C15.6497 1.375 15.7497 1.6125 15.7497 1.8875C15.7497 2.1625 15.6497 2.4 15.4497 2.6L6.24972 11.8C6.04972 12 5.81639 12.1 5.54972 12.1C5.28305 12.1 5.04972 12 4.84972 11.8L0.549719 7.5C0.349719 7.3 0.253885 7.0625 0.262219 6.7875C0.270552 6.5125 0.374719 6.275 0.574719 6.075C0.774719 5.875 1.01222 5.775 1.28722 5.775C1.56222 5.775 1.79972 5.875 1.99972 6.075L5.54972 9.65Z" fill="white"/>
</svg>
