<svg width="24" height="24" viewBox="0 0 24 24" fill="none" xmlns="http://www.w3.org/2000/svg">
<mask id="mask0_75880_8630" style="mask-type:alpha" maskUnits="userSpaceOnUse" x="0" y="0" width="24" height="24">
<rect width="24" height="24" fill="#D9D9D9"/>
</mask>
<g mask="url(#mask0_75880_8630)">
<path d="M12.7 10.3001L15.3 12.9001C15.6167 13.2168 15.6875 13.5793 15.5125 13.9876C15.3375 14.3959 15.025 14.6001 14.575 14.6001H9.42502C8.97502 14.6001 8.66253 14.3959 8.48752 13.9876C8.31252 13.5793 8.38336 13.2168 8.70003 12.9001L11.3 10.3001C11.4 10.2001 11.5084 10.1251 11.625 10.0751C11.7417 10.0251 11.8667 10.0001 12 10.0001C12.1334 10.0001 12.2584 10.0251 12.375 10.0751C12.4917 10.1251 12.6 10.2001 12.7 10.3001Z" fill="#2A3647"/>
</g>
</svg>
