<svg width="25" height="24" viewBox="0 0 25 24" fill="none" xmlns="http://www.w3.org/2000/svg">
<rect x="0.144531" width="24" height="24" rx="12" fill="#EEEEEE"/>
<mask id="mask0_75592_9972" style="mask-type:alpha" maskUnits="userSpaceOnUse" x="0" y="0" width="25" height="24">
<rect x="0.144531" width="24" height="24" fill="#D9D9D9"/>
</mask>
<g mask="url(#mask0_75592_9972)">
<path d="M5.14453 19H6.54453L15.1695 10.375L13.7695 8.975L5.14453 17.6V19ZM19.4445 8.925L15.1945 4.725L16.5945 3.325C16.9779 2.94167 17.4487 2.75 18.007 2.75C18.5654 2.75 19.0362 2.94167 19.4195 3.325L20.8195 4.725C21.2029 5.10833 21.4029 5.57083 21.4195 6.1125C21.4362 6.65417 21.2529 7.11667 20.8695 7.5L19.4445 8.925ZM17.9945 10.4L7.39453 21H3.14453V16.75L13.7445 6.15L17.9945 10.4Z" fill="#2A3647"/>
</g>
</svg>
