<?xml version="1.0" encoding="UTF-8"?>
<!-- Generated by Pixelmator Pro 3.6.4 -->
<svg width="180" height="180" viewBox="0 0 180 180" xmlns="http://www.w3.org/2000/svg">
    <g id="Gruppe">
        <path id="Pfad" fill="#ffffff" stroke="none" d="M 139.775421 5 L 108.897232 5 L 108.897232 40.524857 L 139.775421 40.524857 L 139.775421 5 Z"/>
        <path id="path1" fill="#ffffff" stroke="none" d="M 108.896675 69.417091 L 139.774872 69.417091 L 139.774872 119.519203 C 139.915894 131.575241 136.484833 143.401062 129.917587 153.492752 C 123.433243 163.299179 110.915657 174.966003 87.75705 174.966003 C 62.532078 174.966003 47.82935 163.037186 39.896049 156.500031 L 59.373035 132.474213 C 67.11631 138.796631 74.5746 143.997787 87.875916 143.997787 C 97.946838 143.997787 101.960968 139.894196 104.312592 136.315399 C 107.509254 131.344604 109.162849 125.53154 109.062927 119.614655 L 108.896675 69.417091 Z"/>
        <path id="path2" fill="#29abe2" stroke="none" d="M 93.14856 46.990234 L 62.270508 46.990234 L 62.270508 78.005974 L 93.14856 78.005974 L 93.14856 46.990234 Z"/>
    </g>
</svg>
