<svg width="21" height="15" viewBox="0 0 21 15" fill="none" xmlns="http://www.w3.org/2000/svg">
<path d="M10.334 9.00589C10.0994 9.0063 9.87085 8.93145 9.682 8.79238L0.778897 2.22264C0.663059 2.13708 0.565219 2.02957 0.490964 1.90623C0.416709 1.78289 0.367492 1.64614 0.346125 1.50379C0.30297 1.21631 0.37587 0.923473 0.548786 0.689701C0.721702 0.455928 0.980471 0.300371 1.26817 0.257248C1.55586 0.214126 1.84891 0.286972 2.08286 0.45976L10.334 6.54224L18.5851 0.45976C18.7009 0.374204 18.8325 0.312285 18.9723 0.277538C19.1121 0.242791 19.2574 0.235896 19.3998 0.257248C19.5423 0.2786 19.6791 0.32778 19.8025 0.401981C19.926 0.476181 20.0336 0.573948 20.1192 0.689701C20.2048 0.805453 20.2668 0.936923 20.3015 1.07661C20.3363 1.21629 20.3432 1.36145 20.3218 1.50379C20.3005 1.64614 20.2513 1.78289 20.177 1.90623C20.1027 2.02957 20.0049 2.13708 19.8891 2.22264L10.986 8.79238C10.7971 8.93145 10.5686 9.0063 10.334 9.00589Z" fill="#7AE229"/>
<path d="M10.334 14.7544C10.0994 14.7548 9.87085 14.68 9.682 14.5409L0.778897 7.97117C0.544952 7.79839 0.389279 7.53981 0.346125 7.25233C0.30297 6.96485 0.37587 6.67201 0.548786 6.43824C0.721702 6.20446 0.980471 6.04891 1.26817 6.00578C1.55586 5.96266 1.84891 6.03551 2.08286 6.2083L10.334 12.2908L18.5851 6.2083C18.8191 6.03551 19.1121 5.96266 19.3998 6.00578C19.6875 6.04891 19.9463 6.20446 20.1192 6.43824C20.2921 6.67201 20.365 6.96485 20.3218 7.25233C20.2787 7.53981 20.123 7.79839 19.8891 7.97117L10.986 14.5409C10.7971 14.68 10.5686 14.7548 10.334 14.7544Z" fill="#7AE229"/>
</svg>
