<svg width="20" height="17" viewBox="0 0 20 17" fill="none" xmlns="http://www.w3.org/2000/svg">
<path d="M2 16.5C1.45 16.5 0.979167 16.3042 0.5875 15.9125C0.195833 15.5208 0 15.05 0 14.5V2.5C0 1.95 0.195833 1.47917 0.5875 1.0875C0.979167 0.695833 1.45 0.5 2 0.5H18C18.55 0.5 19.0208 0.695833 19.4125 1.0875C19.8042 1.47917 20 1.95 20 2.5V14.5C20 15.05 19.8042 15.5208 19.4125 15.9125C19.0208 16.3042 18.55 16.5 18 16.5H2ZM18 4.5L10.525 9.175C10.4417 9.225 10.3542 9.2625 10.2625 9.2875C10.1708 9.3125 10.0833 9.325 10 9.325C9.91667 9.325 9.82917 9.3125 9.7375 9.2875C9.64583 9.2625 9.55833 9.225 9.475 9.175L2 4.5V14.5H18V4.5ZM10 7.5L18 2.5H2L10 7.5ZM2 4.75V3.275V3.3V3.2875V4.75Z" fill="#A8A8A8"/>
</svg>
