<svg width="16" height="17" viewBox="0 0 16 17" fill="none" xmlns="http://www.w3.org/2000/svg">
<path d="M8 8.5C6.9 8.5 5.95833 8.10833 5.175 7.325C4.39167 6.54167 4 5.6 4 4.5C4 3.4 4.39167 2.45833 5.175 1.675C5.95833 0.891667 6.9 0.5 8 0.5C9.1 0.5 10.0417 0.891667 10.825 1.675C11.6083 2.45833 12 3.4 12 4.5C12 5.6 11.6083 6.54167 10.825 7.325C10.0417 8.10833 9.1 8.5 8 8.5ZM14 16.5H2C1.45 16.5 0.979167 16.3042 0.5875 15.9125C0.195833 15.5208 0 15.05 0 14.5V13.7C0 13.1333 0.145833 12.6125 0.4375 12.1375C0.729167 11.6625 1.11667 11.3 1.6 11.05C2.63333 10.5333 3.68333 10.1458 4.75 9.8875C5.81667 9.62917 6.9 9.5 8 9.5C9.1 9.5 10.1833 9.62917 11.25 9.8875C12.3167 10.1458 13.3667 10.5333 14.4 11.05C14.8833 11.3 15.2708 11.6625 15.5625 12.1375C15.8542 12.6125 16 13.1333 16 13.7V14.5C16 15.05 15.8042 15.5208 15.4125 15.9125C15.0208 16.3042 14.55 16.5 14 16.5ZM2 14.5H14V13.7C14 13.5167 13.9542 13.35 13.8625 13.2C13.7708 13.05 13.65 12.9333 13.5 12.85C12.6 12.4 11.6917 12.0625 10.775 11.8375C9.85833 11.6125 8.93333 11.5 8 11.5C7.06667 11.5 6.14167 11.6125 5.225 11.8375C4.30833 12.0625 3.4 12.4 2.5 12.85C2.35 12.9333 2.22917 13.05 2.1375 13.2C2.04583 13.35 2 13.5167 2 13.7V14.5ZM8 6.5C8.55 6.5 9.02083 6.30417 9.4125 5.9125C9.80417 5.52083 10 5.05 10 4.5C10 3.95 9.80417 3.47917 9.4125 3.0875C9.02083 2.69583 8.55 2.5 8 2.5C7.45 2.5 6.97917 2.69583 6.5875 3.0875C6.19583 3.47917 6 3.95 6 4.5C6 5.05 6.19583 5.52083 6.5875 5.9125C6.97917 6.30417 7.45 6.5 8 6.5Z" fill="#A8A8A8"/>
</svg>
