<svg width="33" height="32" viewBox="0 0 33 32" fill="none" xmlns="http://www.w3.org/2000/svg">
<mask id="mask0_71338_5886" style="mask-type:alpha" maskUnits="userSpaceOnUse" x="0" y="0" width="33" height="32">
<rect x="0.0683594" width="32" height="32" fill="#D9D9D9"/>
</mask>
<g mask="url(#mask0_71338_5886)">
<path d="M25.3975 18.6667C25.0816 18.6667 24.818 18.5602 24.6069 18.3473C24.3958 18.1343 24.2903 17.8704 24.2903 17.5556V14.4445H21.1791C20.8643 14.4445 20.6004 14.3376 20.3875 14.1239C20.1745 13.9102 20.068 13.6454 20.068 13.3295C20.068 13.0136 20.1745 12.7501 20.3875 12.5389C20.6004 12.3278 20.8643 12.2223 21.1791 12.2223H24.2903V9.11115C24.2903 8.79635 24.3971 8.53246 24.6108 8.31948C24.8245 8.10653 25.0894 8.00005 25.4053 8.00005C25.7212 8.00005 25.9847 8.10653 26.1958 8.31948C26.4069 8.53246 26.5125 8.79635 26.5125 9.11115V12.2223H29.6236C29.9384 12.2223 30.2023 12.3291 30.4153 12.5428C30.6282 12.7566 30.7347 13.0214 30.7347 13.3373C30.7347 13.6532 30.6282 13.9167 30.4153 14.1278C30.2023 14.3389 29.9384 14.4445 29.6236 14.4445H26.5125V17.5556C26.5125 17.8704 26.4056 18.1343 26.1919 18.3473C25.9782 18.5602 25.7134 18.6667 25.3975 18.6667ZM12.068 15.9778C10.6014 15.9778 9.38284 15.4926 8.41247 14.5223C7.44211 13.5519 6.95693 12.3334 6.95693 10.8667C6.95693 9.40005 7.44211 8.18154 8.41247 7.21118C9.38284 6.2408 10.6014 5.75562 12.068 5.75562C13.5347 5.75562 14.7532 6.2408 15.7236 7.21118C16.694 8.18154 17.1791 9.40005 17.1791 10.8667C17.1791 12.3334 16.694 13.5519 15.7236 14.5223C14.7532 15.4926 13.5347 15.9778 12.068 15.9778ZM2.51247 26.6667C2.19767 26.6667 1.93378 26.5602 1.7208 26.3473C1.50784 26.1343 1.40137 25.8704 1.40137 25.5556V23.3334C1.40137 22.563 1.59951 21.8612 1.9958 21.2279C2.39211 20.5945 2.93471 20.1186 3.6236 19.8C5.19398 19.0815 6.64833 18.5649 7.98667 18.25C9.32502 17.9352 10.6843 17.7779 12.0644 17.7779C13.4446 17.7779 14.8051 17.9352 16.1458 18.25C17.4865 18.5649 18.9347 19.0815 20.4903 19.8C21.1792 20.1334 21.7254 20.613 22.1291 21.2389C22.5328 21.8649 22.7347 22.563 22.7347 23.3334V25.5556C22.7347 25.8704 22.6282 26.1343 22.4153 26.3473C22.2023 26.5602 21.9384 26.6667 21.6236 26.6667H2.51247ZM3.62357 24.4445H20.5125V23.3334C20.5125 23.0149 20.4329 22.7149 20.2736 22.4334C20.1143 22.1519 19.8754 21.9408 19.5569 21.8C18.1199 21.0963 16.831 20.6204 15.6903 20.3723C14.5495 20.1241 13.3421 20 12.068 20C10.794 20 9.58656 20.1278 8.4458 20.3834C7.30507 20.6389 6.00878 21.1112 4.55693 21.8C4.26802 21.9408 4.04023 22.1519 3.87357 22.4334C3.7069 22.7149 3.62357 23.0149 3.62357 23.3334V24.4445ZM12.068 13.7556C12.8903 13.7556 13.5773 13.4797 14.1291 12.9278C14.681 12.376 14.9569 11.6889 14.9569 10.8667C14.9569 10.0445 14.681 9.35746 14.1291 8.80562C13.5773 8.25375 12.8903 7.97782 12.068 7.97782C11.2458 7.97782 10.5588 8.25375 10.0069 8.80562C9.45507 9.35746 9.17913 10.0445 9.17913 10.8667C9.17913 11.6889 9.45507 12.376 10.0069 12.9278C10.5588 13.4797 11.2458 13.7556 12.068 13.7556Z" fill="white"/>
</g>
</svg>
