<svg width="32" height="32" viewBox="0 0 32 32" fill="none" xmlns="http://www.w3.org/2000/svg">
<g clip-path="url(#clip0_75609_16176)">
<path d="M16 14.7548C16.1994 14.7544 16.3937 14.8163 16.5543 14.9314L24.1228 20.3653C24.2212 20.4361 24.3044 20.525 24.3675 20.627C24.4307 20.7291 24.4725 20.8422 24.4907 20.9599C24.5273 21.1977 24.4654 21.4399 24.3184 21.6333C24.1714 21.8266 23.9514 21.9553 23.7068 21.9909C23.4623 22.0266 23.2131 21.9664 23.0143 21.8234L16 16.7925L8.98577 21.8234C8.8873 21.8942 8.77545 21.9454 8.65662 21.9742C8.53779 22.0029 8.4143 22.0086 8.2932 21.9909C8.1721 21.9733 8.05577 21.9326 7.95084 21.8712C7.84592 21.8099 7.75445 21.729 7.68166 21.6333C7.60888 21.5375 7.5562 21.4288 7.52664 21.3132C7.49708 21.1977 7.49122 21.0776 7.50938 20.9599C7.52754 20.8422 7.56938 20.7291 7.63251 20.627C7.69563 20.525 7.77881 20.4361 7.87728 20.3653L15.4458 14.9314C15.6063 14.8163 15.8006 14.7544 16 14.7548Z" fill="#FF3D00"/>
<path d="M16 9.99988C16.1994 9.99954 16.3937 10.0614 16.5543 10.1765L24.1228 15.6104C24.3216 15.7534 24.454 15.9672 24.4907 16.205C24.5273 16.4428 24.4654 16.685 24.3184 16.8784C24.1714 17.0717 23.9514 17.2004 23.7068 17.2361C23.4623 17.2717 23.2131 17.2115 23.0143 17.0686L16 12.0376L8.98577 17.0686C8.78689 17.2115 8.53777 17.2717 8.2932 17.2361C8.04863 17.2004 7.82866 17.0717 7.68166 16.8784C7.53467 16.685 7.47269 16.4428 7.50938 16.205C7.54606 15.9672 7.6784 15.7534 7.87728 15.6104L15.4458 10.1765C15.6063 10.0614 15.8006 9.99954 16 9.99988Z" fill="#FF3D00"/>
</g>
<defs>
<clipPath id="clip0_75609_16176">
<rect width="17" height="12" fill="white" transform="translate(24.5 22) rotate(-180)"/>
</clipPath>
</defs>
</svg>
