<svg width="32" height="32" viewBox="0 0 32 32" fill="none" xmlns="http://www.w3.org/2000/svg">
<g clip-path="url(#clip0_75609_16170)">
<path d="M16 17.2452C15.8006 17.2456 15.6063 17.1837 15.4457 17.0686L7.87724 11.6347C7.77877 11.5639 7.6956 11.475 7.63247 11.373C7.56935 11.2709 7.52751 11.1578 7.50934 11.0401C7.47266 10.8023 7.53463 10.5601 7.68163 10.3667C7.82862 10.1734 8.0486 10.0447 8.29317 10.0091C8.53773 9.97339 8.78686 10.0336 8.98574 10.1766L16 15.2075L23.0142 10.1766C23.1127 10.1058 23.2245 10.0546 23.3434 10.0258C23.4622 9.9971 23.5857 9.9914 23.7068 10.0091C23.8279 10.0267 23.9442 10.0674 24.0492 10.1288C24.1541 10.1901 24.2456 10.271 24.3183 10.3667C24.3911 10.4625 24.4438 10.5712 24.4734 10.6868C24.5029 10.8023 24.5088 10.9224 24.4906 11.0401C24.4725 11.1578 24.4306 11.2709 24.3675 11.373C24.3044 11.475 24.2212 11.5639 24.1227 11.6347L16.5542 17.0686C16.3937 17.1837 16.1994 17.2456 16 17.2452Z" fill="#7AE229"/>
<path d="M16 22.0001C15.8006 22.0005 15.6063 21.9386 15.4457 21.8235L7.87724 16.3896C7.67837 16.2466 7.54603 16.0328 7.50934 15.795C7.47266 15.5572 7.53463 15.315 7.68163 15.1216C7.82862 14.9283 8.0486 14.7996 8.29317 14.7639C8.53773 14.7283 8.78686 14.7885 8.98574 14.9314L16 19.9624L23.0142 14.9314C23.2131 14.7885 23.4622 14.7283 23.7068 14.7639C23.9514 14.7996 24.1713 14.9283 24.3183 15.1216C24.4653 15.315 24.5273 15.5572 24.4906 15.795C24.4539 16.0328 24.3216 16.2466 24.1227 16.3896L16.5542 21.8235C16.3937 21.9386 16.1994 22.0005 16 22.0001Z" fill="#7AE229"/>
</g>
<defs>
<clipPath id="clip0_75609_16170">
<rect width="17" height="12" fill="white" transform="translate(7.5 10)"/>
</clipPath>
</defs>
</svg>
