<svg width="21" height="15" viewBox="0 0 21 15" fill="none" xmlns="http://www.w3.org/2000/svg">
<path d="M19.5712 14.7547C19.3366 14.7551 19.1081 14.6803 18.9192 14.5412L10.6671 8.458L2.41508 14.5412C2.29923 14.6267 2.16765 14.6887 2.02785 14.7234C1.88805 14.7582 1.74277 14.7651 1.6003 14.7437C1.45783 14.7223 1.32097 14.6732 1.19752 14.599C1.07408 14.5247 0.966466 14.427 0.880837 14.3112C0.795208 14.1954 0.733236 14.0639 0.698459 13.9243C0.663683 13.7846 0.656782 13.6394 0.678153 13.497C0.721312 13.2095 0.877002 12.9509 1.11097 12.7781L10.0151 6.20761C10.2038 6.06802 10.4324 5.99268 10.6671 5.99268C10.9019 5.99268 11.1305 6.06802 11.3192 6.20761L20.2233 12.7781C20.4092 12.915 20.5471 13.1071 20.6173 13.327C20.6874 13.5469 20.6862 13.7833 20.6139 14.0025C20.5416 14.2216 20.4019 14.4124 20.2146 14.5475C20.0274 14.6826 19.8022 14.7551 19.5712 14.7547Z" fill="#FF3D00"/>
<path d="M19.5713 9.00568C19.3366 9.00609 19.1081 8.93124 18.9192 8.79214L10.6671 2.70898L2.41509 8.79214C2.18112 8.96495 1.88803 9.0378 1.6003 8.99468C1.31257 8.95155 1.05378 8.79597 0.880842 8.56218C0.707906 8.32838 0.634998 8.03551 0.678157 7.74799C0.721316 7.46048 0.877007 7.20187 1.11098 7.02906L10.0151 0.458588C10.2038 0.318997 10.4324 0.243652 10.6671 0.243652C10.9019 0.243652 11.1305 0.318997 11.3192 0.458588L20.2233 7.02906C20.4092 7.16598 20.5471 7.35809 20.6173 7.57797C20.6874 7.79785 20.6863 8.03426 20.6139 8.25344C20.5416 8.47262 20.4019 8.66338 20.2146 8.79847C20.0274 8.93356 19.8022 9.00608 19.5713 9.00568Z" fill="#FF3D00"/>
</svg>
