<svg width="50" height="50" viewBox="0 0 50 50" fill="none" xmlns="http://www.w3.org/2000/svg">
<circle cx="25" cy="25" r="25" fill="#FF3D00"/>
<g clip-path="url(#clip0_353_2540)">
<path d="M37.3923 34.3022C37.0581 34.3028 36.7326 34.1948 36.4635 33.9942L24.7092 25.2193L12.9548 33.9942C12.7898 34.1176 12.6023 34.2069 12.4032 34.2571C12.2041 34.3072 11.9971 34.3171 11.7942 34.2863C11.5913 34.2555 11.3963 34.1846 11.2205 34.0775C11.0446 33.9705 10.8913 33.8295 10.7694 33.6625C10.6474 33.4955 10.5591 33.3058 10.5096 33.1043C10.4601 32.9028 10.4502 32.6934 10.4807 32.488C10.5421 32.0733 10.7639 31.7002 11.0972 31.451L23.7804 21.9731C24.0491 21.7718 24.3747 21.6631 24.7092 21.6631C25.0436 21.6631 25.3692 21.7718 25.638 21.9731L38.3211 31.451C38.586 31.6485 38.7824 31.9256 38.8823 32.2428C38.9822 32.5599 38.9806 32.901 38.8776 33.2171C38.7746 33.5333 38.5755 33.8084 38.3088 34.0033C38.0421 34.1982 37.7213 34.3028 37.3923 34.3022Z" fill="white"/>
<path d="M37.3923 26.009C37.0581 26.0096 36.7326 25.9016 36.4635 25.701L24.7092 16.9261L12.9548 25.701C12.6215 25.9502 12.204 26.0553 11.7942 25.9931C11.3843 25.9309 11.0157 25.7065 10.7694 25.3693C10.523 25.032 10.4192 24.6095 10.4807 24.1948C10.5422 23.7801 10.7639 23.407 11.0972 23.1578L23.7804 13.6799C24.0492 13.4786 24.3747 13.3699 24.7092 13.3699C25.0436 13.3699 25.3692 13.4786 25.638 13.6799L38.3211 23.1578C38.586 23.3553 38.7824 23.6324 38.8823 23.9496C38.9822 24.2667 38.9806 24.6077 38.8776 24.9239C38.7746 25.2401 38.5755 25.5152 38.3088 25.7101C38.0421 25.905 37.7213 26.0096 37.3923 26.009Z" fill="white"/>
</g>
<defs>
<clipPath id="clip0_353_2540">
<rect width="28.4884" height="20.9302" fill="white" transform="translate(10.4651 13.3721)"/>
</clipPath>
</defs>
</svg>
